<svg width="36" height="36" viewBox="0 0 36 36" fill="none" xmlns="http://www.w3.org/2000/svg">
<path fill-rule="evenodd" clip-rule="evenodd" d="M30 10C30 9.20435 30.3161 8.44129 30.8787 7.87868C31.4413 7.31607 32.2044 7 33 7C33.7956 7 34.5587 7.31607 35.1213 7.87868C35.6839 8.44129 36 9.20435 36 10V30.303L33 34.803L30 30.303V10ZM33 9C32.7348 9 32.4804 9.10536 32.2929 9.29289C32.1054 9.48043 32 9.73478 32 10V29.697L33 31.197L34 29.697V10C34 9.73478 33.8946 9.48043 33.7071 9.29289C33.5196 9.10536 33.2652 9 33 9Z" fill="white"/>
<path fill-rule="evenodd" clip-rule="evenodd" d="M35 14H31V12H35V14ZM4 2C3.46957 2 2.96086 2.21071 2.58579 2.58579C2.21071 2.96086 2 3.46957 2 4V32C2 32.5304 2.21071 33.0391 2.58579 33.4142C2.96086 33.7893 3.46957 34 4 34H24C24.5304 34 25.0391 33.7893 25.4142 33.4142C25.7893 33.0391 26 32.5304 26 32V4C26 3.46957 25.7893 2.96086 25.4142 2.58579C25.0391 2.21071 24.5304 2 24 2H4ZM0 4C0 2.93913 0.421427 1.92172 1.17157 1.17157C1.92172 0.421427 2.93913 0 4 0H24C25.0609 0 26.0783 0.421427 26.8284 1.17157C27.5786 1.92172 28 2.93913 28 4V32C28 33.0609 27.5786 34.0783 26.8284 34.8284C26.0783 35.5786 25.0609 36 24 36H4C2.93913 36 1.92172 35.5786 1.17157 34.8284C0.421427 34.0783 0 33.0609 0 32V4Z" fill="white"/>
<path fill-rule="evenodd" clip-rule="evenodd" d="M14.0001 9C14.0001 8.73478 14.1054 8.48043 14.293 8.29289C14.4805 8.10536 14.7349 8 15.0001 8H23.0001C23.2653 8 23.5197 8.10536 23.7072 8.29289C23.8947 8.48043 24.0001 8.73478 24.0001 9C24.0001 9.26522 23.8947 9.51957 23.7072 9.70711C23.5197 9.89464 23.2653 10 23.0001 10H15.0001C14.7349 10 14.4805 9.89464 14.293 9.70711C14.1054 9.51957 14.0001 9.26522 14.0001 9ZM14.0001 13C14.0001 12.7348 14.1054 12.4804 14.293 12.2929C14.4805 12.1054 14.7349 12 15.0001 12H23.0001C23.2653 12 23.5197 12.1054 23.7072 12.2929C23.8947 12.4804 24.0001 12.7348 24.0001 13C24.0001 13.2652 23.8947 13.5196 23.7072 13.7071C23.5197 13.8946 23.2653 14 23.0001 14H15.0001C14.7349 14 14.4805 13.8946 14.293 13.7071C14.1054 13.5196 14.0001 13.2652 14.0001 13ZM14.0001 22C14.0001 21.7348 14.1054 21.4804 14.293 21.2929C14.4805 21.1054 14.7349 21 15.0001 21H23.0001C23.2653 21 23.5197 21.1054 23.7072 21.2929C23.8947 21.4804 24.0001 21.7348 24.0001 22C24.0001 22.2652 23.8947 22.5196 23.7072 22.7071C23.5197 22.8946 23.2653 23 23.0001 23H15.0001C14.7349 23 14.4805 22.8946 14.293 22.7071C14.1054 22.5196 14.0001 22.2652 14.0001 22ZM14.0001 26C14.0001 25.7348 14.1054 25.4804 14.293 25.2929C14.4805 25.1054 14.7349 25 15.0001 25H23.0001C23.2653 25 23.5197 25.1054 23.7072 25.2929C23.8947 25.4804 24.0001 25.7348 24.0001 26C24.0001 26.2652 23.8947 26.5196 23.7072 26.7071C23.5197 26.8946 23.2653 27 23.0001 27H15.0001C14.7349 27 14.4805 26.8946 14.293 26.7071C14.1054 26.5196 14.0001 26.2652 14.0001 26ZM6.00008 22V25H9.00008V22H6.00008ZM5.00008 20H10.0001C10.2653 20 10.5197 20.1054 10.7072 20.2929C10.8947 20.4804 11.0001 20.7348 11.0001 21V26C11.0001 26.2652 10.8947 26.5196 10.7072 26.7071C10.5197 26.8946 10.2653 27 10.0001 27H5.00008C4.73487 27 4.48051 26.8946 4.29298 26.7071C4.10544 26.5196 4.00008 26.2652 4.00008 26V21C4.00008 20.7348 4.10544 20.4804 4.29298 20.2929C4.48051 20.1054 4.73487 20 5.00008 20ZM11.7071 8.293C11.8946 8.48053 11.9999 8.73484 11.9999 9C11.9999 9.26516 11.8946 9.51947 11.7071 9.707L7.00008 14.414L4.29308 11.707C4.19757 11.6148 4.12139 11.5044 4.06898 11.3824C4.01657 11.2604 3.98898 11.1292 3.98783 10.9964C3.98668 10.8636 4.01198 10.7319 4.06226 10.609C4.11254 10.4862 4.18679 10.3745 4.28069 10.2806C4.37458 10.1867 4.48623 10.1125 4.60913 10.0622C4.73202 10.0119 4.8637 9.9866 4.99648 9.98775C5.12926 9.9889 5.26048 10.0165 5.38249 10.0689C5.50449 10.1213 5.61483 10.1975 5.70708 10.293L7.00008 11.586L10.2931 8.293C10.4806 8.10553 10.7349 8.00021 11.0001 8.00021C11.2652 8.00021 11.5196 8.10553 11.7071 8.293Z" fill="white"/>
</svg>
